<?xml version="1.0" standalone="no"?><!DOCTYPE svg PUBLIC "-//W3C//DTD SVG 1.1//EN" "http://www.w3.org/Graphics/SVG/1.1/DTD/svg11.dtd"><svg t="1523770273288" class="icon" style="" viewBox="0 0 1024 1024" version="1.1" xmlns="http://www.w3.org/2000/svg" p-id="955" xmlns:xlink="http://www.w3.org/1999/xlink" width="32" height="32"><defs><style type="text/css"></style></defs><path d="M595.8 209.8c33.4 57.6 115.3 50.7 195.5 105.3 111.3 75.8 154.4 164.6 165.9 246.1 13.2 93.3-25 140.8-25 140.8-14.5 30.8-34 57.7-56.1 78.9-100 96-280.3 75.6-370.6 75.6S151 841.3 159.6 615.9c8.2-214.2 139.3-289.5 225.6-330.8 95.9-46 113.8-50.9 132.7-69.7" fill="#FFF5C5" p-id="956"></path><path d="M552.6 862.3c-22.2 0-43.4-0.6-62.7-1.1-15.5-0.4-30.2-0.8-42.7-0.8-54.5 0-105.3-5.1-151-15.3-73.6-16.3-130.7-45.1-169.6-85.5C84 715.4 63.8 657.9 66.4 588.8c2.1-54.6 11.9-104.6 29.1-148.6 15.1-38.5 36.3-73.5 63-103.9 47.7-54.3 104.9-85.9 154.6-109.8 25.9-12.4 46.4-22 62.8-29.7 45.8-21.4 58.1-27.1 70.2-39.3 7.7-7.7 20.2-7.7 27.9 0 7.7 7.7 7.7 20.2 0 27.9-17.1 17.1-33.3 24.6-81.4 47.1-16.4 7.6-36.7 17.1-62.5 29.5-106.7 51.2-216.7 130.2-224.3 328.3-2.2 58 14.3 105.8 49.2 142 74.3 77.1 214.9 88.7 292.1 88.7 13.1 0 28 0.4 43.8 0.8 97.6 2.7 245.1 6.7 329.4-74.2 21.9-21 40.7-47.5 54.3-76.5 4.6-9.8 16.4-14.1 26.2-9.4 9.8 4.6 14.1 16.4 9.4 26.2-15.7 33.4-37.4 63.9-62.7 88.2-78.2 75.1-197.1 86.2-294.9 86.2zM918.6 552.2c-10 0-18.6-7.6-19.6-17.9-8.6-91.1-65.5-174.9-164.7-242.5-34.1-23.2-69.6-35.5-100.9-46.3-44.1-15.2-85.7-29.6-109.1-70-5.5-9.4-2.2-21.5 7.2-26.9 9.4-5.5 21.5-2.2 26.9 7.2 16.1 27.7 47.8 38.7 87.9 52.5 33.6 11.6 71.8 24.8 110.2 50.9 137.9 94 174.9 199.4 181.7 271.3 1 10.8-6.9 20.4-17.8 21.5-0.5 0.1-1.2 0.2-1.8 0.2z" fill="#E22B60" p-id="957"></path><path d="M292.4 541.1c-10.9 0-19.7-8.8-19.7-19.7 0-32.6 7.4-65.6 22.1-98.1 11.5-25.6 27.6-50.9 47.6-75.2 33.9-41.2 67.6-65.4 69-66.4 8.9-6.3 21.2-4.3 27.5 4.6 6.3 8.8 4.3 21.1-4.6 27.5-0.3 0.2-31.5 22.8-62.2 60.2-27.4 33.5-60.1 86.3-60.1 147.5 0.1 10.8-8.8 19.6-19.6 19.6zM737.8 541.1c-10.9 0-19.7-8.8-19.7-19.7 0-118.2-138.5-206.2-139.9-207.1-9.2-5.8-12-17.9-6.3-27.1 5.8-9.2 17.9-12 27.1-6.3 1.6 1 39.9 25.1 78.5 66.1 22.9 24.3 41.2 49.7 54.4 75.3 16.9 32.8 25.5 66.1 25.5 99.1 0.1 10.9-8.7 19.7-19.6 19.7zM918 633.8c-1.8 0-3.7-0.3-5.6-0.8-10.4-3.1-16.4-14-13.3-24.5l1.3-4.3c3.1-10.4 14-16.4 24.5-13.3 10.4 3.1 16.4 14 13.3 24.5l-1.3 4.3c-2.5 8.6-10.4 14.1-18.9 14.1z" fill="#E22B60" p-id="958"></path></svg>